<svg width="60" height="60" viewBox="0 0 60 60" fill="none" xmlns="http://www.w3.org/2000/svg">
<path d="M13.1836 0.606506H46.8173C53.7635 0.606506 59.3945 6.23749 59.3945 13.1837V46.8174C59.3945 53.7635 53.7635 59.3945 46.8173 59.3945H13.1836C6.23743 59.3945 0.606445 53.7635 0.606445 46.8174V13.1837C0.606445 6.23749 6.23743 0.606506 13.1836 0.606506Z" stroke="#D8D8D8" stroke-miterlimit="10"/>
<path d="M13.9246 20.0427C13.9233 21.3783 14.4111 22.6682 15.296 23.6686C16.1808 24.6691 17.4014 25.3108 18.7272 25.4727C20.053 25.6346 21.3921 25.3053 22.4917 24.5471C23.5913 23.789 24.3751 22.6544 24.6952 21.3577C24.9874 22.5431 25.6685 23.5964 26.6297 24.3494C27.5908 25.1024 28.7765 25.5115 29.9975 25.5115C31.2184 25.5115 32.4042 25.1024 33.3653 24.3494C34.3264 23.5964 35.0075 22.5431 35.2997 21.3577C35.6238 22.6498 36.4086 23.7792 37.5068 24.5334C38.6049 25.2875 39.9408 25.6146 41.2631 25.4531C42.5855 25.2916 43.8033 24.6526 44.6877 23.6563C45.5721 22.6599 46.062 21.3749 46.0655 20.0427V15.5273H13.9246V20.0427Z" fill="#FF334C"/>
<path d="M23.4226 37.8158V44.0857H20.483V38.3219C20.483 37.1075 19.7777 36.2449 18.6219 36.2449C17.4662 36.2449 16.5245 37.1662 16.5245 38.4391V44.0828H13.5849V34.0478H16.4463V35.3999C16.788 34.8676 17.2574 34.4292 17.8117 34.1246C18.3661 33.8201 18.9879 33.659 19.6204 33.6561C21.8937 33.6561 23.4226 35.3999 23.4226 37.8158Z" fill="black"/>
<path d="M42.6231 34.0487L40.5501 36.831L38.5298 34.0487H35.1887L38.8483 38.9343L34.8907 44.115H38.141L40.4729 40.9595L42.7287 44.115H46.1127L42.1366 38.8571L45.7933 34.0487H42.6231Z" fill="black"/>
<path d="M35.3114 39.0263C35.3114 35.8513 33.1172 33.6532 29.9031 33.6532C26.6695 33.6532 24.3766 35.8484 24.3766 38.9833C24.3766 42.217 26.6695 44.4707 29.9031 44.4707C32.2741 44.4707 34.3315 43.2007 34.861 41.453L32.2937 40.8844C31.941 41.6484 31.0393 42.217 29.9813 42.217C28.6487 42.217 27.6689 41.2957 27.4149 39.885L35.2723 39.9046C35.3055 39.6131 35.3186 39.3196 35.3114 39.0263ZM29.8406 35.9099C31.096 35.9099 32.0289 36.7491 32.2829 37.9116H27.4481C27.7588 36.7012 28.6233 35.9099 29.8445 35.9099H29.8406Z" fill="black"/>
</svg>
